<?xml version="1.0" encoding="utf-8"?>
<!-- Generator: Adobe Illustrator 17.0.0, SVG Export Plug-In . SVG Version: 6.00 Build 0)  -->
<!DOCTYPE svg PUBLIC "-//W3C//DTD SVG 1.1//EN" "http://www.w3.org/Graphics/SVG/1.1/DTD/svg11.dtd">
<svg version="1.1" id="Layer_1" xmlns="http://www.w3.org/2000/svg" xmlns:xlink="http://www.w3.org/1999/xlink" x="0px" y="0px"
	 width="232.771px" height="136.943px" viewBox="0 0 232.771 136.943" enable-background="new 0 0 232.771 136.943"
	 xml:space="preserve">
<path stroke="#FFF200" stroke-width="2" stroke-miterlimit="10" d="M141.033,50.95c0,0,10.605-46.274,47.56-49.809
	c0,0,21.459-2.641,34.741,14.926c13.282,17.567,8.283,34.562,2.571,41.846s-27.707,31.706-65.268,24.565"/>
<path stroke="#FFF200" stroke-width="2" stroke-miterlimit="10" d="M91.738,50.95c0,0-10.605-46.274-47.56-49.809
	c0,0-21.459-2.641-34.741,14.926S1.154,50.629,6.866,57.913s27.707,31.706,65.268,24.565"/>
<circle stroke="#FFF200" stroke-width="2" stroke-miterlimit="10" cx="116.382" cy="88.593" r="47.35"/>
<ellipse transform="matrix(0.9375 -0.3481 0.3481 0.9375 -17.6825 54.5342)" fill="#FFF200" cx="142.943" cy="76.483" rx="12.974" ry="19.798"/>
<ellipse transform="matrix(-0.9375 -0.3481 0.3481 -0.9375 147.5595 179.4733)" fill="#FFF200" cx="89.9" cy="76.483" rx="12.974" ry="19.798"/>
<path fill="#FFF200" d="M75.139,98.676c0,0,41.187,21.318,82.374,0c0,0-3.976,32.287-41.105,32.701S75.139,98.676,75.139,98.676z"/>
</svg>
